# xmcd
#
# Track frame offsets: 
#        185
#        5407
#        24142
#        41800
#        58302
#        76357
#        93157
#        117065
#        142185
#        161700
#        175797
#        190510
#        210107
#
# Disc length: 2990 seconds
#
# Revision: 7
# Processed by: cddbd v1.5PL3 Copyright (c) Steve Scherf et al.
# Submitted via: ExactAudioCopy v0.95a4
#
DISCID=9d0bac0d
DTITLE=Vargas Blues Band - Blues Latino
DYEAR=1994
DGENRE=Blues Latino
TTITLE0=El alma
TTITLE1=Rock away the blues
TTITLE2=Coward´s Knife
TTITLE3=Brand new blues
TTITLE4=Out of the blues
TTITLE5=Hot wires
TTITLE6=Do you believe in love
TTITLE7=Blues latino
TTITLE8=Magic of the gods
TTITLE9=Amapola negra
TTITLE10=Fear
TTITLE11=Mexico city blues
TTITLE12=Pachuco Boogie - Jeff's boogie
EXTD=
EXTT0=
EXTT1=
EXTT2=
EXTT3=
EXTT4=
EXTT5=
EXTT6=
EXTT7=
EXTT8=
EXTT9=
EXTT10=
EXTT11=
EXTT12=
PLAYORDER=
